<svg xmlns="http://www.w3.org/2000/svg" xmlns:xlink="http://www.w3.org/1999/xlink" version="1.1" x="0px" y="0px" viewBox="0 0 100 100" enable-background="new 0 0 100 100" xml:space="preserve"><path d="M59.3,48.2v-2.9H36.5v2.9H59.3z M59.3,57.8v-2.9H36.5v2.9H59.3z M59.3,53v-2.9H36.5V53H59.3z M69.1,44.4v-6.9h-6.9v6.9H69.1  z M50,5C25.1,5,5,25.1,5,50c0,24.9,20.1,45,45,45c24.8,0,45-20.1,45-45C95,25.1,74.8,5,50,5L50,5z M26.1,67.1  c-0.5,0-0.9-0.4-0.9-0.9V31.4c0-0.5,0.4-0.9,0.9-0.9l47.8-0.1c0.5,0,0.9,0.4,0.9,0.9v35c0,0.5-0.4,0.9-0.9,0.9H26.1z"></path></svg>