<svg xmlns="http://www.w3.org/2000/svg" xmlns:xlink="http://www.w3.org/1999/xlink" version="1.1" x="0px" y="0px" viewBox="0 0 100 100" enable-background="new 0 0 100 100" xml:space="preserve"><path d="M35.5,44.7c-0.7,0-1.3,0.6-1.3,1.3v20.2c0,0.7,0.6,1.3,1.3,1.3c0.7,0,1.3-0.6,1.3-1.3v-8.8h3.4c1.6,0,3-1.4,3-3v-6.7  c0-1.7-1.4-3-3-3H35.5z M40.6,54.3c0,0.3-0.2,0.5-0.5,0.5h-3.4v-7.6h3.4c0.3,0,0.5,0.2,0.5,0.5V54.3z M50,5C25.1,5,5,25.1,5,50  c0,24.9,20.1,45,45,45s45-20.1,45-45C95,25.1,74.9,5,50,5L50,5z M70,34.8H59.4V24.2L70,34.8z M71.3,76.2c0,0.5-0.4,0.9-0.9,0.9H29.6  c-0.5,0-0.9-0.4-0.9-0.9V23.9c0-0.5,0.4-0.9,0.9-0.9h25.4v15.5c0,0.5,0.4,0.9,0.9,0.9h15.5V76.2z M46.8,44.7c-0.7,0-1.3,0.6-1.3,1.3  v20.2c0,0.7,0.6,1.3,1.3,1.3h4.4c2.4,0,4.4-2.3,4.4-5.1V49.7c0-2.8-2-5-4.4-5H46.8z M53.1,62.3c0,1.4-0.9,2.5-1.9,2.5h-3.2V47.2h3.2  c1,0,1.9,1.2,1.9,2.5V62.3z M59.4,67.4c0.7,0,1.3-0.6,1.3-1.3v-8.8h3.8c0.7,0,1.3-0.6,1.3-1.3c0-0.7-0.6-1.3-1.3-1.3h-3.8v-7.6h3.8  c0.7,0,1.3-0.6,1.3-1.3c0-0.7-0.6-1.3-1.3-1.3h-5c-0.7,0-1.3,0.6-1.3,1.3v20.2C58.2,66.8,58.7,67.4,59.4,67.4z"></path></svg>